<mxfile host="app.diagrams.net" agent="Mozilla/5.0 (Windows NT 10.0; Win64; x64) AppleWebKit/537.36 (KHTML, like Gecko) Chrome/134.0.0.0 Safari/537.36" version="26.1.1">
  <diagram name="PÃ¡gina-1" id="Ph40cnIfuY8QfEMOEtZY">
    <mxGraphModel grid="1" page="1" gridSize="10" guides="1" tooltips="1" connect="1" arrows="1" fold="1" pageScale="1" pageWidth="827" pageHeight="1169" math="0" shadow="0">
      <root>
        <mxCell id="0" />
        <mxCell id="1" parent="0" />
        <mxCell id="6fRK4wOLRSXKrMufcjbe-3" style="edgeStyle=orthogonalEdgeStyle;rounded=0;orthogonalLoop=1;jettySize=auto;html=1;exitX=0.5;exitY=1;exitDx=0;exitDy=0;" edge="1" parent="1" source="6fRK4wOLRSXKrMufcjbe-1" target="6fRK4wOLRSXKrMufcjbe-2">
          <mxGeometry relative="1" as="geometry" />
        </mxCell>
        <mxCell id="6fRK4wOLRSXKrMufcjbe-1" value="inicio" style="ellipse;whiteSpace=wrap;html=1;fillColor=#d5e8d4;strokeColor=#82b366;gradientColor=none;" vertex="1" parent="1">
          <mxGeometry x="354" width="120" height="80" as="geometry" />
        </mxCell>
        <mxCell id="6fRK4wOLRSXKrMufcjbe-5" style="edgeStyle=orthogonalEdgeStyle;rounded=0;orthogonalLoop=1;jettySize=auto;html=1;exitX=0.5;exitY=1;exitDx=0;exitDy=0;entryX=0.5;entryY=0;entryDx=0;entryDy=0;" edge="1" parent="1" source="6fRK4wOLRSXKrMufcjbe-2" target="6fRK4wOLRSXKrMufcjbe-4">
          <mxGeometry relative="1" as="geometry" />
        </mxCell>
        <mxCell id="6fRK4wOLRSXKrMufcjbe-2" value="num1, num2" style="shape=parallelogram;perimeter=parallelogramPerimeter;whiteSpace=wrap;html=1;fixedSize=1;fillColor=#f9f7ed;strokeColor=#36393d;" vertex="1" parent="1">
          <mxGeometry x="354" y="160" width="120" height="60" as="geometry" />
        </mxCell>
        <mxCell id="6fRK4wOLRSXKrMufcjbe-7" style="edgeStyle=orthogonalEdgeStyle;rounded=0;orthogonalLoop=1;jettySize=auto;html=1;exitX=0.5;exitY=1;exitDx=0;exitDy=0;entryX=0.5;entryY=0;entryDx=0;entryDy=0;" edge="1" parent="1" source="6fRK4wOLRSXKrMufcjbe-4" target="6fRK4wOLRSXKrMufcjbe-6">
          <mxGeometry relative="1" as="geometry" />
        </mxCell>
        <mxCell id="6fRK4wOLRSXKrMufcjbe-4" value="media =&lt;span style=&quot;background-color: transparent; color: light-dark(rgb(0, 0, 0), rgb(255, 255, 255));&quot;&gt;&amp;nbsp;(num1 + num2)/2&lt;/span&gt;" style="rounded=0;whiteSpace=wrap;html=1;fillColor=#f9f7ed;strokeColor=#36393d;" vertex="1" parent="1">
          <mxGeometry x="334" y="280" width="160" height="60" as="geometry" />
        </mxCell>
        <mxCell id="6fRK4wOLRSXKrMufcjbe-9" style="edgeStyle=orthogonalEdgeStyle;rounded=0;orthogonalLoop=1;jettySize=auto;html=1;" edge="1" parent="1" source="6fRK4wOLRSXKrMufcjbe-6" target="6fRK4wOLRSXKrMufcjbe-8">
          <mxGeometry relative="1" as="geometry" />
        </mxCell>
        <mxCell id="6fRK4wOLRSXKrMufcjbe-6" value="media" style="shape=document;whiteSpace=wrap;html=1;boundedLbl=1;fillColor=#f9f7ed;strokeColor=#36393d;" vertex="1" parent="1">
          <mxGeometry x="354" y="410" width="120" height="80" as="geometry" />
        </mxCell>
        <mxCell id="6fRK4wOLRSXKrMufcjbe-8" value="fim" style="ellipse;whiteSpace=wrap;html=1;aspect=fixed;fillColor=#e51400;strokeColor=#B20000;fontColor=#ffffff;" vertex="1" parent="1">
          <mxGeometry x="374" y="560" width="80" height="80" as="geometry" />
        </mxCell>
      </root>
    </mxGraphModel>
  </diagram>
</mxfile>
